ModelForces
version=1
nRows=4
nColumns=94
inDegrees=yes

This file contains the forces exerted on a model during a simulation.

A force is a generalized force, meaning that it can be either a force (N) or a torque (Nm).

Units are S.I. units (second, meters, Newtons, ...)
Angles are in degrees.

endheader 
time	addbrev_l	addlong_l	addmagDist_l	addmagIsch_l	addmagMid_l	addmagProx_l	bflh_l	bfsh_l	edl_l	ehl_l	fdl_l	fhl_l	gaslat_l	gasmed_l	glmax1_l	glmax2_l	glmax3_l	glmed1_l	glmed2_l	glmed3_l	glmin1_l	glmin2_l	glmin3_l	grac_l	iliacus_l	perbrev_l	perlong_l	piri_l	psoas_l	recfem_l	sart_l	semimem_l	semiten_l	soleus_l	tfl_l	tibant_l	tibpost_l	vasint_l	vaslat_l	vasmed_l	addbrev_r	addlong_r	addmagDist_r	addmagIsch_r	addmagMid_r	addmagProx_r	bflh_r	bfsh_r	edl_r	ehl_r	fdl_r	fhl_r	gaslat_r	gasmed_r	glmax1_r	glmax2_r	glmax3_r	glmed1_r	glmed2_r	glmed3_r	glmin1_r	glmin2_r	glmin3_r	grac_r	iliacus_r	perbrev_r	perlong_r	piri_r	psoas_r	recfem_r	sart_r	semimem_r	semiten_r	soleus_r	tfl_r	tibant_r	tibpost_r	vasint_r	vaslat_r	vasmed_r	lumbar_extension	lumbar_bending	lumbar_rotation	arm_flex_l	arm_add_l	arm_rot_l	arm_flex_r	arm_add_r	arm_rot_r	elbow_flex_l	elbow_flex_r	pro_sup_l	pro_sup_r	
          6.35000000	         15.56935090	          4.29112314	          5.57954696	          8.11238595	          2.00981922	         11.28487390	          2.43645369	          0.00295490	        180.07840763	          1.20878208	         12.53122376	         22.04049855	         -0.00006938	          0.00874904	          9.24502519	         13.12490940	          9.66974193	         14.07835604	          9.59586534	         10.20813677	          4.24098382	          3.83411204	          2.96302107	          0.01288207	          0.00826795	          5.87837008	          6.24226735	          0.98674999	          0.01034394	         32.27956338	          0.55213780	          0.01717349	          0.00350597	          0.84212257	        310.01356393	          1.10784124	         51.70567166	         37.15035101	        108.80666476	         52.74128347	          2.27593099	          2.31994338	          0.00152976	          0.00049248	          0.00353279	          0.19480085	          0.00338489	          4.17222227	        276.73222742	          0.00069310	          3.72130110	          9.64060620	         38.13885428	         80.52495866	          4.34265789	          4.46483705	          0.00295052	         27.29716516	         10.73895167	          5.25408586	         10.44726486	         13.06979502	         22.14420564	          0.36230072	        243.79246086	         20.02826296	         74.63953204	          3.55142287	        665.67782124	         17.29307444	          2.51539981	          0.00675746	          0.01401286	        149.20243144	         15.70899354	          0.00090608	         25.20144658	         14.16008978	         41.84521211	         21.16383206	        -30.18739751	         73.64593488	        -51.76866089	        152.56182238	         14.33700630	        -52.72066883	        -60.83013389	         -5.30441237	         -2.45932666	        125.98489122	          4.89353410	         -3.89072117	          0.44135161	
          6.36003401	         18.14130767	         11.69165323	          7.98551410	          9.69136137	          5.61563531	         14.54885678	          9.05521767	        220.64923003	        151.16495646	          0.97383202	         10.43157996	         18.92776466	         -0.00002865	         -0.00013221	         10.04232817	         15.26765979	         12.89275288	         15.62422742	          8.11007473	          9.01734303	         22.06139905	         13.66775099	          1.75482361	          5.41793595	        146.98430448	          0.02923616	         22.27323620	          0.02356731	        240.72960772	         18.02344903	         93.47177496	          6.46337454	        201.01501242	          2.68312752	        310.61984595	          0.57329718	         45.03445267	         32.41161363	         93.61390427	         46.14652280	          2.04260206	          2.12684446	          0.23594395	          1.15626645	          0.01792407	          0.03247394	          0.00056298	         52.89793464	        274.51253653	         44.58673272	          4.52379630	         11.78726963	         33.72115212	         69.94023725	          4.59492356	          5.24401744	          0.12477999	         23.68138923	          9.38584500	          4.72722451	          9.36489753	         11.17473839	         17.87276643	          0.29054319	        206.18157083	         12.33515586	         46.49203053	          4.87346059	       1188.62107826	         17.95060590	        152.20953273	          0.00583848	          0.02273628	        152.24010597	         17.74917830	        200.15973025	         28.69386771	         20.14287642	         59.89865568	         28.58171687	        -97.43620805	         25.20806557	        -64.50284107	        152.27798216	         48.01493165	        -23.12477154	        -57.18010433	        -28.39049817	          4.60723577	         94.50474285	         -2.37296776	         -2.05117279	          0.20187577	
          6.37006803	        140.76277522	        103.76451798	          9.47954585	         11.27421898	          7.69817700	         11.43780156	         13.88844139	         93.61965241	        186.30687560	          0.86353872	          9.34928927	         17.29418781	          0.05475436	         -0.00013267	         10.81466137	         16.89721881	         14.78522512	         11.39535601	          7.76428135	          9.32263193	         14.43706337	          9.07294387	          0.52269550	        100.80408348	        208.92164440	         49.73535456	         36.47077773	          0.00039195	        313.23412483	         11.47792933	        113.00757482	         12.83681754	        206.74072898	          5.92556058	        206.47551598	          0.33127164	         41.51130466	         32.47185850	         92.87443128	         46.45280833	          3.06802874	          3.24726323	          0.15705423	          1.31370712	          0.08026785	          0.24801161	          1.40138485	         40.31460645	        197.53486035	         34.32232533	          6.76444717	         13.08094811	         29.40557780	         59.39999017	          4.19882713	          4.97481072	          0.22262000	         18.45458179	          6.87181070	          3.36983908	          7.66788887	          8.71969662	         12.74828898	          0.41579791	        174.19860822	          5.91580820	         41.04471881	          0.00551334	        973.89178655	        194.49990359	        123.53576171	          0.00476473	          0.01243973	        136.03138022	         16.40629774	        186.16516718	         29.96016864	         18.81825185	         52.68555395	         27.01553830	       -147.82226392	        -55.83253693	        -90.45449069	        151.85141667	         36.75062493	        -22.28006199	        -42.46549257	         16.18293130	        -23.40104675	         62.03016449	         -9.52704728	         -1.44506413	         -1.41479957	
          6.38010204	        101.73242432	        317.76081166	          9.02741572	         10.99585883	          6.82971578	        140.74101258	          8.87604185	        211.07176898	        214.98959951	          0.00025246	          8.62089891	         16.42212225	          0.19645914	         -0.00014337	         11.38770185	         17.63533129	         14.65221837	         11.41089089	          9.22249042	         11.19544725	         15.73815552	         11.97150596	          3.36078637	         93.26862944	        292.34049611	         98.46053234	         26.04088968	          4.42454897	        468.43580565	         10.34653129	        124.80830442	         30.43776238	        325.77470162	          9.83222666	        116.59332429	          0.00052778	         40.95377005	         30.85799947	         87.89511479	         44.43798198	          5.54716813	          5.81009710	          0.30289293	          1.03726198	          0.62770388	          1.03063755	          0.00913466	         29.68770113	        120.30835461	         26.46729952	          0.00986962	         12.80298501	         27.67310016	         54.15126411	          3.63196862	          3.17176109	          0.08307197	         12.18285285	          4.54361238	         25.22583271	          5.57841614	          5.95570629	          6.73278612	          0.58965989	        146.80163960	          4.22991076	         25.51618700	        115.11048555	        806.93935495	        320.42872111	        100.98335500	          0.00434525	          0.01477215	        125.87208196	         14.47531591	        202.97263309	         27.50295806	         95.75915555	        337.81935904	        143.24667004	       -146.74277863	       -116.69059566	        -76.01794784	        151.33127314	          0.82508807	        -41.75322189	        -23.34754820	         33.79741225	        -32.83713680	         35.09332419	        -11.68834644	         -1.82375048	         -1.44821554	
